<svg id="SvgjsSvg1014" width="288" height="288" xmlns="http://www.w3.org/2000/svg" version="1.1" xmlns:xlink="http://www.w3.org/1999/xlink" xmlns:svgjs="http://svgjs.com/svgjs"><defs id="SvgjsDefs1015"></defs><g id="SvgjsG1016"><svg xmlns="http://www.w3.org/2000/svg" data-name="Layer 1" viewBox="0 0 512 512" width="288" height="288"><g data-name="&amp;lt;Group&amp;gt;"><g data-name="&amp;lt;Group&amp;gt;"><path fill="#fbf9fa" d="M293.06,268.5a128.344,128.344,0,1,1,40.81,6.67A127.774,127.774,0,0,1,293.06,268.5ZM404.35,160.62V94.71L333.9,60.11l-.22.11L263.46,94.61v66.01c0,15.63,10.51,35.57,23.48,44.42l46.96,32.03,46.97-32.03C393.84,196.19,404.35,176.35,404.35,160.62Z" data-name="&amp;lt;Group&amp;gt;" class="colorfedb41 svgShape"></path><path fill="#2b2024" d="M404.35,94.71v65.91c0,15.73-10.51,35.57-23.48,44.42L333.9,237.07l-.18-176.78-.04-.07.22-.11Z" data-name="&amp;lt;Group&amp;gt;" class="color00acea svgShape"></path><path fill="#fbf9fa" d="M361.21,328.47V435.7c0,21.56-33.47,40.26-82.63,49.69a389.167,389.167,0,0,1-72.68,6.52c-85.79,0-155.3-25.14-155.3-56.21V328.47c0,31.06,69.51,56.2,155.3,56.2S361.21,359.53,361.21,328.47Z" data-name="&amp;lt;Group&amp;gt;" class="color00efd1 svgShape"></path><path fill="#2b2024" d="M361.21,326.25v2.22c0,31.06-69.52,56.2-155.31,56.2S50.6,359.53,50.6,328.47V221.97c0,31.06,69.51,56.21,155.3,56.21,32.31,0,62.32-3.57,87.16-9.68a128.344,128.344,0,0,0,68.15,3.73Z" data-name="&amp;lt;Group&amp;gt;" class="color00acea svgShape"></path><path fill="#fbf9fa" d="M333.72 60.29l.18 176.78-46.96-32.03c-12.97-8.85-23.48-28.79-23.48-44.42V94.61l70.22-34.39zM293.06 268.5c-24.84 6.11-54.85 9.68-87.16 9.68-85.79 0-155.3-25.15-155.3-56.21V115.47c0 31.05 69.53 56.21 155.3 56.21.91 0 1.8 0 2.69-.01A127.774 127.774 0 0 0 293.06 268.5z" data-name="&amp;lt;Group&amp;gt;" class="color00efd1 svgShape"></path><path fill="#2b2024" d="M205.9,59.27c11.91,0,23.51.48,34.65,1.41a127.12,127.12,0,0,0-34.22,86.95,128.659,128.659,0,0,0,2.26,24.04c-.89.01-1.78.01-2.69.01-85.77,0-155.3-25.16-155.3-56.21S120.13,59.27,205.9,59.27Z" data-name="&amp;lt;Group&amp;gt;" class="color00acea svgShape"></path></g><g data-name="&amp;lt;Group&amp;gt;"><path fill="#2b2024" d="M173 224a7 7 0 0 0 7 7h51a7 7 0 0 0 0-14H180A7 7 0 0 0 173 224zM232 323H180a7 7 0 0 0 0 14h52a7 7 0 0 0 0-14zM232 431H180a7 7 0 0 0 0 14h52a7 7 0 0 0 0-14z" data-name="&amp;lt;Path&amp;gt;" class="colorf4b844 svgShape"></path></g></g></svg></g></svg>